<svg width="22" height="22" viewBox="0 0 22 22" fill="none" xmlns="http://www.w3.org/2000/svg">
<path d="M11 12.7701L2.14943 21.6207C1.89655 21.8736 1.60153 22 1.26437 22C0.927203 22 0.632184 21.8736 0.37931 21.6207C0.126437 21.3678 0 21.0728 0 20.7356C0 20.3985 0.126437 20.1034 0.37931 19.8506L9.22989 11L0.37931 2.14943C0.126437 1.89655 0 1.60153 0 1.26437C0 0.927203 0.126437 0.632184 0.37931 0.37931C0.632184 0.126437 0.927203 0 1.26437 0C1.60153 0 1.89655 0.126437 2.14943 0.37931L11 9.22989L19.8506 0.37931C20.1034 0.126437 20.3985 0 20.7356 0C21.0728 0 21.3678 0.126437 21.6207 0.37931C21.8736 0.632184 22 0.927203 22 1.26437C22 1.60153 21.8736 1.89655 21.6207 2.14943L12.7701 11L21.6207 19.8506C21.8736 20.1034 22 20.3985 22 20.7356C22 21.0728 21.8736 21.3678 21.6207 21.6207C21.3678 21.8736 21.0728 22 20.7356 22C20.3985 22 20.1034 21.8736 19.8506 21.6207L11 12.7701Z" fill="#F2F2F2" style="fill:#F2F2F2;fill:color(display-p3 0.9500 0.9500 0.9500);fill-opacity:1;"/>
</svg>
