<svg width="27" height="18" viewBox="0 0 27 18" fill="none" xmlns="http://www.w3.org/2000/svg">
<path d="M1.125 18C0.80625 18 0.539063 17.8916 0.323438 17.6747C0.107813 17.4578 0 17.189 0 16.8684C0 16.5478 0.107813 16.2813 0.323438 16.0688C0.539063 15.8563 0.80625 15.75 1.125 15.75H25.875C26.1938 15.75 26.4609 15.8584 26.6766 16.0753C26.8922 16.2922 27 16.561 27 16.8816C27 17.2022 26.8922 17.4688 26.6766 17.6813C26.4609 17.8938 26.1938 18 25.875 18H1.125ZM1.125 10.125C0.80625 10.125 0.539063 10.0166 0.323438 9.79969C0.107813 9.58279 0 9.31404 0 8.99344C0 8.67281 0.107813 8.40625 0.323438 8.19375C0.539063 7.98125 0.80625 7.875 1.125 7.875H25.875C26.1938 7.875 26.4609 7.98344 26.6766 8.20031C26.8922 8.41721 27 8.68596 27 9.00656C27 9.32719 26.8922 9.59375 26.6766 9.80625C26.4609 10.0188 26.1938 10.125 25.875 10.125H1.125ZM1.125 2.25C0.80625 2.25 0.539063 2.14156 0.323438 1.92469C0.107813 1.70779 0 1.43904 0 1.11844C0 0.797813 0.107813 0.53125 0.323438 0.31875C0.539063 0.10625 0.80625 0 1.125 0H25.875C26.1938 0 26.4609 0.108437 26.6766 0.325312C26.8922 0.542212 27 0.810962 27 1.13156C27 1.45219 26.8922 1.71875 26.6766 1.93125C26.4609 2.14375 26.1938 2.25 25.875 2.25H1.125Z" fill="#F2F2F2" style="fill:#F2F2F2;fill:color(display-p3 0.9500 0.9500 0.9500);fill-opacity:1;"/>
</svg>
